<svg width="19" height="14" viewBox="0 0 19 14" fill="none" xmlns="http://www.w3.org/2000/svg">
<path fill-rule="evenodd" clip-rule="evenodd" d="M0.53846 0.846153H3H7.92308V3.30769H3V5.76923H6.80769V8.23077H3V13.1538H0.53846V8.23077V5.76923V3.30769V0.846153Z" fill="white"/>
<path d="M12.8462 8.23077C13.5259 8.23077 14.0769 7.67974 14.0769 7C14.0769 6.32027 13.5259 5.76923 12.8462 5.76923C12.1664 5.76923 11.6154 6.32027 11.6154 7C11.6154 7.67974 12.1664 8.23077 12.8462 8.23077Z" fill="white"/>
<path fill-rule="evenodd" clip-rule="evenodd" d="M9.36396 8.23077C9.87081 9.66485 11.2385 10.6923 12.8462 10.6923C14.8853 10.6923 16.5385 9.03919 16.5385 7C16.5385 4.96081 14.8853 3.30769 12.8462 3.30769C11.2385 3.30769 9.87081 4.33515 9.36396 5.76923H6.81542C7.38558 2.96031 9.86896 0.846153 12.8462 0.846153C16.2448 0.846153 19 3.60131 19 7C19 10.3987 16.2448 13.1538 12.8462 13.1538C9.86896 13.1538 7.38558 11.0397 6.81542 8.23077H9.36396Z" fill="white"/>
</svg>
